<svg width="32" height="32" viewBox="0 0 32 32" fill="none" xmlns="http://www.w3.org/2000/svg">
<rect x="0.735156" y="0.7" width="30.6" height="30.6" rx="15.3" stroke="black" stroke-opacity="0.2" stroke-width="0.6"/>
<g opacity="0.9" clip-path="url(#clip0_1_739)">
<path d="M23.3791 21.0277C23.1069 21.6566 22.7847 22.2354 22.4114 22.7676C21.9025 23.4932 21.4859 23.9954 21.1648 24.2743C20.667 24.732 20.1337 24.9665 19.5626 24.9798C19.1526 24.9798 18.6582 24.8631 18.0826 24.6265C17.5052 24.3909 16.9746 24.2743 16.4893 24.2743C15.9805 24.2743 15.4347 24.3909 14.851 24.6265C14.2663 24.8631 13.7953 24.9865 13.4352 24.9987C12.8876 25.022 12.3417 24.7809 11.7968 24.2743C11.4491 23.9709 11.0141 23.4509 10.493 22.7143C9.93389 21.9277 9.47424 21.0155 9.11414 19.9755C8.72848 18.8522 8.53516 17.7644 8.53516 16.7114C8.53516 15.5051 8.79581 14.4647 9.31791 13.5928C9.72823 12.8925 10.2741 12.3401 10.9573 11.9345C11.6405 11.529 12.3787 11.3223 13.1737 11.3091C13.6087 11.3091 14.1791 11.4436 14.888 11.7081C15.5948 11.9734 16.0487 12.108 16.2477 12.108C16.3965 12.108 16.9007 11.9506 17.7554 11.637C18.5637 11.3461 19.2459 11.2256 19.8048 11.2731C21.3192 11.3953 22.4569 11.9923 23.2136 13.0678C21.8592 13.8885 21.1892 15.0379 21.2025 16.5124C21.2148 17.6609 21.6314 18.6166 22.4503 19.3755C22.8214 19.7277 23.2358 19.9999 23.6969 20.1933C23.5969 20.4833 23.4913 20.761 23.3791 21.0277V21.0277ZM19.9059 7.36032C19.9059 8.26052 19.577 9.10104 18.9215 9.87902C18.1304 10.8039 17.1735 11.3383 16.1359 11.254C16.1227 11.146 16.115 11.0323 16.115 10.9129C16.115 10.0487 16.4912 9.12382 17.1593 8.36762C17.4929 7.98474 17.9171 7.66638 18.4315 7.41243C18.9448 7.16225 19.4304 7.02391 19.887 7.00021C19.9003 7.12056 19.9059 7.24091 19.9059 7.3603V7.36032Z" fill="black"/>
</g>
<defs>
<clipPath id="clip0_1_739">
<rect width="18" height="18" fill="white" transform="translate(7.03516 7)"/>
</clipPath>
</defs>
</svg>
