<svg width="32" height="32" viewBox="0 0 32 32" fill="none" xmlns="http://www.w3.org/2000/svg">
<rect x="0.735156" y="0.7" width="30.6" height="30.6" rx="15.3" stroke="black" stroke-opacity="0.2" stroke-width="0.6"/>
<g opacity="0.9" clip-path="url(#clip0_1_737)">
<path d="M25.0353 16C25.0353 11.0295 21.0058 7 16.0353 7C11.0648 7 7.03528 11.0295 7.03528 16C7.03528 20.2206 9.9412 23.7623 13.8612 24.735V18.7504H12.0054V16H13.8612V14.8149C13.8612 11.7516 15.2476 10.3318 18.255 10.3318C18.8253 10.3318 19.8092 10.4438 20.2116 10.5554V13.0484C19.9992 13.026 19.6302 13.0149 19.172 13.0149C17.6963 13.0149 17.1261 13.574 17.1261 15.0273V16H20.0658L19.5608 18.7504H17.1261V24.9341C21.5825 24.3959 25.0356 20.6015 25.0356 16H25.0353Z" fill="#0866FF"/>
<path d="M19.5603 18.7504L20.0654 16H17.1256V15.0273C17.1256 13.574 17.6959 13.0149 19.1715 13.0149C19.6298 13.0149 19.9988 13.0261 20.2112 13.0484V10.5554C19.8087 10.4434 18.8248 10.3318 18.2546 10.3318C15.2472 10.3318 13.8608 11.7517 13.8608 14.8149V16H12.005V18.7504H13.8608V24.7351C14.557 24.9079 15.2853 25 16.0348 25C16.4038 25 16.7678 24.9773 17.1253 24.9341V18.7504H19.56H19.5603Z" fill="white"/>
</g>
<defs>
<clipPath id="clip0_1_737">
<rect width="18" height="18" fill="white" transform="translate(7.03528 7)"/>
</clipPath>
</defs>
</svg>
