<svg width="32" height="32" viewBox="0 0 32 32" fill="none" xmlns="http://www.w3.org/2000/svg">
<rect x="0.735156" y="0.7" width="30.6" height="30.6" rx="15.3" stroke="black" stroke-opacity="0.2" stroke-width="0.6"/>
<g opacity="0.9" clip-path="url(#clip0_1_735)">
<path d="M16.035 14.3636V17.8491H20.8787C20.666 18.97 20.0277 19.9191 19.0705 20.5573L21.9913 22.8237C23.6932 21.2528 24.675 18.9455 24.675 16.2046C24.675 15.5664 24.6177 14.9528 24.5113 14.3637L16.035 14.3636Z" fill="#4285F4"/>
<path d="M10.9912 17.713L10.3325 18.2173L8.00061 20.0336C9.48152 22.9709 12.5167 25 16.0349 25C18.4648 25 20.5021 24.1982 21.9912 22.8237L19.0703 20.5573C18.2685 21.0973 17.2458 21.4246 16.0349 21.4246C13.6949 21.4246 11.7068 19.8455 10.9949 17.7182L10.9912 17.713Z" fill="#34A853"/>
<path d="M8.00054 11.9664C7.38694 13.1772 7.03516 14.5436 7.03516 16C7.03516 17.4563 7.38694 18.8227 8.00054 20.0335C8.00054 20.0417 10.9951 17.7099 10.9951 17.7099C10.8151 17.1699 10.7087 16.5972 10.7087 15.9999C10.7087 15.4025 10.8151 14.8298 10.9951 14.2898L8.00054 11.9664Z" fill="#FBBC05"/>
<path d="M16.0351 10.5836C17.3606 10.5836 18.5387 11.0418 19.4796 11.9255L22.0569 9.34821C20.4941 7.89187 18.4651 7 16.0351 7C12.5169 7 9.48152 9.02091 8.00061 11.9664L10.9951 14.29C11.7069 12.1627 13.6951 10.5836 16.0351 10.5836Z" fill="#EA4335"/>
</g>
<defs>
<clipPath id="clip0_1_735">
<rect width="18" height="18" fill="white" transform="translate(7.03516 7)"/>
</clipPath>
</defs>
</svg>
