<svg width="21" height="21" viewBox="0 0 21 21" fill="none" xmlns="http://www.w3.org/2000/svg">
<g opacity="0.5">
<path d="M5.86853 7.58334L8.32021 9.03284C9.74953 9.87792 10.3209 9.87792 11.7502 9.03284L14.2019 7.58334" stroke="black" stroke-width="1.5" stroke-linecap="round" stroke-linejoin="round"/>
<path d="M1.71492 11.7297C1.7694 14.2843 1.79664 15.5616 2.73924 16.5077C3.68185 17.454 4.99373 17.4869 7.61748 17.5528C9.23454 17.5935 10.8357 17.5935 12.4528 17.5528C15.0765 17.4869 16.3884 17.454 17.331 16.5077C18.2736 15.5616 18.3009 14.2843 18.3553 11.7297C18.3729 10.9083 18.3729 10.0917 18.3553 9.27033C18.3009 6.71569 18.2736 5.43838 17.331 4.49219C16.3884 3.546 15.0765 3.51304 12.4528 3.44712C10.8357 3.40648 9.23454 3.40648 7.61747 3.44711C4.99373 3.51303 3.68185 3.54598 2.73924 4.49218C1.79664 5.43838 1.76939 6.71568 1.71492 9.27025C1.6974 10.0917 1.6974 10.9083 1.71492 11.7297Z" stroke="black" stroke-width="1.5" stroke-linejoin="round"/>
</g>
</svg>
