<svg width="21" height="21" viewBox="0 0 21 21" fill="none" xmlns="http://www.w3.org/2000/svg">
<g opacity="0.5">
<path d="M5.51647 13.4013C4.33749 14.1033 1.24629 15.5368 3.12904 17.3305C4.04875 18.2067 5.07307 18.8333 6.36088 18.8333H13.7094C14.9972 18.8333 16.0216 18.2067 16.9412 17.3305C18.824 15.5368 15.7328 14.1033 14.5538 13.4013C11.7892 11.7551 8.28115 11.7551 5.51647 13.4013Z" stroke="black" stroke-width="1.5" stroke-linecap="round" stroke-linejoin="round"/>
<path d="M13.7852 5.91667C13.7852 7.98773 12.1062 9.66667 10.0352 9.66667C7.96409 9.66667 6.28516 7.98773 6.28516 5.91667C6.28516 3.8456 7.96409 2.16667 10.0352 2.16667C12.1062 2.16667 13.7852 3.8456 13.7852 5.91667Z" stroke="black" stroke-width="1.5"/>
</g>
</svg>
