<svg width="41" height="41" viewBox="0 0 41 41" fill="none" xmlns="http://www.w3.org/2000/svg">
<mask id="path-1-inside-1_22_23" fill="white">
<path d="M0.0472727 8.47972L11.5173 9.59183C17.001 10.1235 21.0155 15 20.4838 20.4838L9.01381 19.3717C3.53003 18.84 -0.484423 13.9635 0.0472727 8.47972Z"/>
<path d="M0.744475 1.28954L5.72073 1.77203C14.7909 2.65145 21.4308 10.7172 20.5514 19.7874L20.4838 20.4838L15.5076 20.0013C6.43744 19.1219 -0.202473 11.0561 0.676952 1.98595L0.744475 1.28954Z"/>
<path d="M13.2938 19.7866L12.1817 31.2566C11.65 36.7404 6.77348 40.7549 1.28971 40.2232L2.40182 28.7532C2.93351 23.2694 7.81002 19.255 13.2938 19.7866Z"/>
<path d="M20.4838 20.4838L20.0013 25.46C19.1219 34.5302 11.0561 41.1701 1.98597 40.2907L1.28971 40.2232L1.77205 35.2469C2.65147 26.1767 10.7172 19.5368 19.7874 20.4163L20.4838 20.4838Z"/>
<path d="M32.4877 0.0472727L31.3756 11.5173C30.8439 17.001 25.9676 21.0155 20.4838 20.4838L21.5958 9.01381C22.1275 3.53003 27.004 -0.484423 32.4877 0.0472727Z"/>
<path d="M39.678 0.744434L39.1955 5.72069C38.316 14.7909 30.2503 21.4308 21.1801 20.5513L20.4838 20.4838L20.9662 15.5076C21.8456 6.4374 29.9114 -0.202514 38.9815 0.676911L39.678 0.744434Z"/>
<path d="M40.9201 32.4879L29.4501 31.3758C23.9664 30.8441 19.9521 25.9676 20.4838 20.4838L31.9536 21.5959C37.4374 22.1276 41.4518 27.0041 40.9201 32.4879Z"/>
<path d="M40.2231 39.6781L35.2469 39.1956C26.1767 38.3161 19.5368 30.2504 20.4162 21.1802L20.4838 20.4838L25.46 20.9663C34.5302 21.8457 41.1701 29.9115 40.2906 38.9816L40.2231 39.6781Z"/>
</mask>
<path d="M0.0472727 8.47972L0.843442 0.268226L-7.36805 -0.527943L-8.16422 7.68355L0.0472727 8.47972ZM9.01381 19.3717L8.21764 27.5832L8.21764 27.5832L9.01381 19.3717ZM11.5173 9.59183L12.3134 1.38033L12.3134 1.38033L11.5173 9.59183ZM0.744475 1.28954L1.54064 -6.92195L-6.67085 -7.71812L-7.46702 0.493369L0.744475 1.28954ZM15.5076 20.0013L16.3038 11.7898L16.3038 11.7898L15.5076 20.0013ZM0.676952 1.98595L-7.53454 1.18978L-7.53454 1.18978L0.676952 1.98595ZM5.72073 1.77203L6.5169 -6.43947L5.72073 1.77203ZM20.5514 19.7874L28.7628 20.5842L28.7629 20.5835L20.5514 19.7874ZM13.2938 19.7866L21.5053 20.5828L22.3015 12.3713L14.09 11.5752L13.2938 19.7866ZM1.28971 40.2232L-6.92181 39.4273L-7.71769 47.6384L0.493403 48.4347L1.28971 40.2232ZM2.40182 28.7532L-5.80967 27.957L2.40182 28.7532ZM12.1817 31.2566L3.97019 30.4605L3.97019 30.4605L12.1817 31.2566ZM1.77205 35.2469L-6.43944 34.4507L-6.43947 34.451L1.77205 35.2469ZM19.7874 20.4163L20.5837 12.2048L20.5835 12.2048L19.7874 20.4163ZM20.0013 25.46L11.7898 24.6639L11.7898 24.6639L20.0013 25.46ZM1.98597 40.2907L1.18967 48.5022L1.1898 48.5022L1.98597 40.2907ZM32.4877 0.0472727L40.6992 0.843443L41.4954 -7.36805L33.2839 -8.16422L32.4877 0.0472727ZM21.5958 9.01381L13.3843 8.21764L13.3843 8.21774L21.5958 9.01381ZM31.3756 11.5173L23.1641 10.7211L23.1641 10.7211L31.3756 11.5173ZM39.678 0.744434L47.8895 1.5406L48.6856 -6.67089L40.4741 -7.46706L39.678 0.744434ZM20.9662 15.5076L12.7547 14.7114L12.7547 14.7115L20.9662 15.5076ZM38.9815 0.676911L39.7777 -7.53458L39.7777 -7.53458L38.9815 0.676911ZM39.1955 5.72069L47.407 6.51686L47.407 6.51686L39.1955 5.72069ZM21.1801 20.5513L20.3837 28.7628L20.384 28.7628L21.1801 20.5513ZM40.9201 32.4879L40.1239 40.6994L48.3354 41.4956L49.1316 33.2841L40.9201 32.4879ZM31.9536 21.5959L31.1574 29.8074L31.1574 29.8074L31.9536 21.5959ZM29.4501 31.3758L30.2463 23.1643L30.2463 23.1643L29.4501 31.3758ZM40.2231 39.6781L39.4269 47.8895L47.6384 48.6857L48.4346 40.4742L40.2231 39.6781ZM25.46 20.9663L24.6638 29.1778L24.6638 29.1778L25.46 20.9663ZM40.2906 38.9816L48.5021 39.7778L48.5021 39.7778L40.2906 38.9816ZM35.2469 39.1956L36.043 30.9841L36.043 30.9841L35.2469 39.1956ZM20.4162 21.1802L12.2048 20.3834L12.2047 20.3841L20.4162 21.1802ZM-0.748897 16.6912L10.7211 17.8033L12.3134 1.38033L0.843442 0.268226L-0.748897 16.6912ZM21.28 12.2723L9.80997 11.1602L8.21764 27.5832L19.6876 28.6953L21.28 12.2723ZM9.80998 11.1602C8.86128 11.0682 8.16678 10.2246 8.25877 9.27589L-8.16422 7.68355C-9.13563 17.7024 -1.80122 26.6118 8.21764 27.5832L9.80998 11.1602ZM10.7211 17.8033C11.6698 17.8953 12.3643 18.7389 12.2723 19.6876L28.6953 21.28C29.6667 11.2611 22.3323 2.35174 12.3134 1.38033L10.7211 17.8033ZM-0.0516954 9.50103L4.92456 9.98352L6.5169 -6.43947L1.54064 -6.92195L-0.0516954 9.50103ZM12.34 18.9905L12.2724 19.687L28.6952 21.2806L28.7628 20.5842L12.34 18.9905ZM21.28 12.2723L16.3038 11.7898L14.7114 28.2128L19.6876 28.6953L21.28 12.2723ZM8.88844 2.78212L8.95597 2.08571L-7.46702 0.493369L-7.53454 1.18978L8.88844 2.78212ZM16.3038 11.7898C11.7687 11.3501 8.44873 7.3172 8.88844 2.78212L-7.53454 1.18978C-8.85368 14.795 1.10619 26.8936 14.7114 28.2128L16.3038 11.7898ZM4.92456 9.98352C9.45965 10.4232 12.7796 14.4561 12.3399 18.9912L28.7629 20.5835C30.082 6.97827 20.1221 -5.12033 6.5169 -6.43947L4.92456 9.98352ZM5.0823 18.9905L3.97019 30.4605L20.3932 32.0528L21.5053 20.5828L5.0823 18.9905ZM9.5012 41.0193L10.6133 29.5494L-5.80967 27.957L-6.92178 39.427L9.5012 41.0193ZM10.6133 29.5494C10.7053 28.6007 11.5489 27.9062 12.4976 27.9981L14.09 11.5752C4.07111 10.6037 -4.83827 17.9382 -5.80967 27.957L10.6133 29.5494ZM3.97019 30.4605C3.87821 31.4092 3.03457 32.1037 2.08588 32.0117L0.49354 48.4347C10.5124 49.4061 19.4218 42.0717 20.3932 32.0528L3.97019 30.4605ZM12.2723 19.6876L11.7898 24.6639L28.2128 26.2562L28.6953 21.28L12.2723 19.6876ZM2.78228 32.0792L2.08602 32.0117L0.493403 48.4347L1.18967 48.5022L2.78228 32.0792ZM9.50123 41.0191L9.98356 36.0428L-6.43947 34.451L-6.92181 39.4273L9.50123 41.0191ZM18.9911 28.6277L19.6875 28.6953L21.2801 12.2723L20.5837 12.2048L18.9911 28.6277ZM9.98354 36.0431C10.4233 31.508 14.4561 28.188 18.9912 28.6278L20.5835 12.2048C6.97829 10.8856 -5.12031 20.8455 -6.43944 34.4507L9.98354 36.0431ZM11.7898 24.6639C11.3501 29.199 7.31722 32.5189 2.78214 32.0792L1.1898 48.5022C14.7951 49.8213 26.8937 39.8615 28.2128 26.2562L11.7898 24.6639ZM24.2762 -0.748898L23.1641 10.7211L39.5871 12.3134L40.6992 0.843443L24.2762 -0.748898ZM28.6953 21.2799L29.8073 9.80987L13.3843 8.21774L12.2723 19.6877L28.6953 21.2799ZM29.8073 9.80998C29.8992 8.86128 30.7429 8.16678 31.6916 8.25877L33.2839 -8.16422C23.265 -9.13563 14.3557 -1.80122 13.3843 8.21764L29.8073 9.80998ZM23.1641 10.7211C23.0721 11.6699 22.2285 12.3643 21.28 12.2723L19.6876 28.6953C29.7066 29.6667 38.6157 22.3322 39.5871 12.3134L23.1641 10.7211ZM31.4665 -0.0517334L30.984 4.92452L47.407 6.51686L47.8895 1.5406L31.4665 -0.0517334ZM21.9766 12.3399L21.2803 12.2723L19.6873 28.6953L20.3837 28.7628L21.9766 12.3399ZM28.6953 21.2799L29.1777 16.3036L12.7547 14.7115L12.2723 19.6877L28.6953 21.2799ZM38.1854 8.8884L38.8818 8.95593L40.4741 -7.46706L39.7777 -7.53458L38.1854 8.8884ZM29.1777 16.3037C29.6174 11.7686 33.6503 8.44869 38.1854 8.8884L39.7777 -7.53458C26.1725 -8.85372 14.0739 1.10614 12.7547 14.7114L29.1777 16.3037ZM30.984 4.92452C30.5443 9.45961 26.5114 12.7796 21.9763 12.3398L20.384 28.7628C33.9892 30.082 46.0878 20.1221 47.407 6.51686L30.984 4.92452ZM41.7163 24.2764L30.2463 23.1643L28.654 39.5873L40.1239 40.6994L41.7163 24.2764ZM19.6876 28.6953L31.1574 29.8074L32.7498 13.3844L21.28 12.2723L19.6876 28.6953ZM31.1574 29.8074C32.1061 29.8994 32.8006 30.743 32.7086 31.6917L49.1316 33.2841C50.103 23.2652 42.7686 14.3558 32.7498 13.3844L31.1574 29.8074ZM30.2463 23.1643C29.2979 23.0723 28.6033 22.2289 28.6953 21.28L12.2723 19.6876C11.3009 29.7062 18.6348 38.6159 28.654 39.5873L30.2463 23.1643ZM41.0193 31.4666L36.043 30.9841L34.4507 47.4071L39.4269 47.8895L41.0193 31.4666ZM28.6276 21.9771L28.6952 21.2807L12.2724 19.6869L12.2048 20.3834L28.6276 21.9771ZM19.6876 28.6953L24.6638 29.1778L26.2562 12.7548L21.28 12.2723L19.6876 28.6953ZM32.0792 38.1855L32.0116 38.8819L48.4346 40.4742L48.5021 39.7778L32.0792 38.1855ZM24.6638 29.1778C29.1989 29.6175 32.5189 33.6504 32.0791 38.1855L48.5021 39.7778C49.8213 26.1726 39.8614 14.074 26.2562 12.7548L24.6638 29.1778ZM36.043 30.9841C31.5079 30.5444 28.188 26.5115 28.6277 21.9764L12.2047 20.3841C10.8856 33.9893 20.8454 46.0879 34.4507 47.4071L36.043 30.9841Z" fill="#73895D" mask="url(#path-1-inside-1_22_23)"/>
</svg>
